HIERARCHY
ROOT mixamorig:Hips
{
	OFFSET 0.000000 201.639420 0.000000
	CHANNELS 6 Xposition Yposition Zposition Xrotation Yrotation Zrotation
	JOINT mixamorig:Spine
	{
		OFFSET 0.006200 19.524994 -2.481800
		CHANNELS 3 Xrotation Yrotation Zrotation
		JOINT mixamorig:Spine1
		{
			OFFSET -0.000900 22.835007 -2.825400
			CHANNELS 3 Xrotation Yrotation Zrotation
			JOINT mixamorig:Spine2
			{
				OFFSET -0.020600 26.552490 -3.193300
				CHANNELS 3 Xrotation Yrotation Zrotation
				JOINT mixamorig:Neck
				{
					OFFSET -0.060000 30.701813 1.352200
					CHANNELS 3 Xrotation Yrotation Zrotation
					JOINT mixamorig:Head
					{
						OFFSET -0.087200 22.547607 3.670900
						CHANNELS 3 Xrotation Yrotation Zrotation
						JOINT mixamorig:HeadTop_End
						{
							OFFSET -0.830600 40.355194 7.893500
							CHANNELS 3 Xrotation Yrotation Zrotation
							End Site
							{
								OFFSET 0.000000 30.592346 0.000000
							}
						}
						JOINT mixamorig:RightEye
						{
							OFFSET -6.302100 18.118591 16.197100
							CHANNELS 3 Xrotation Yrotation Zrotation
							End Site
							{
								OFFSET 0.000000 30.592346 0.000000
							}
						}
						JOINT mixamorig:LeftEye
						{
							OFFSET 6.741500 18.382690 16.401899
							CHANNELS 3 Xrotation Yrotation Zrotation
							End Site
							{
								OFFSET 0.000000 30.592346 0.000000
							}
						}
					}
				}
				JOINT mixamorig:LeftShoulder
				{
					OFFSET 11.924900 18.230499 1.425400
					CHANNELS 3 Xrotation Yrotation Zrotation
					JOINT mixamorig:LeftArm
					{
						OFFSET 25.435989 -0.697632 -5.229300
						CHANNELS 3 Xrotation Yrotation Zrotation
						JOINT mixamorig:LeftForeArm
						{
							OFFSET 54.684776 0.000000 0.000000
							CHANNELS 3 Xrotation Yrotation Zrotation
							JOINT mixamorig:LeftHand
							{
								OFFSET 55.098175 0.000000 0.000000
								CHANNELS 3 Xrotation Yrotation Zrotation
								JOINT mixamorig:LeftHandMiddle1
								{
									OFFSET 23.369751 0.000000 0.000000
									CHANNELS 3 Xrotation Yrotation Zrotation
									JOINT mixamorig:LeftHandMiddle2
									{
										OFFSET 6.378677 0.000000 0.000000
										CHANNELS 3 Xrotation Yrotation Zrotation
										JOINT mixamorig:LeftHandMiddle3
										{
											OFFSET 6.148331 0.000000 0.000000
											CHANNELS 3 Xrotation Yrotation Zrotation
											JOINT mixamorig:LeftHandMiddle4
											{
												OFFSET 6.582504 0.000000 0.000000
												CHANNELS 3 Xrotation Yrotation Zrotation
												End Site
												{
													OFFSET -1.168900 6.395691 1.028606
												}
											}
										}
									}
								}
								JOINT mixamorig:LeftHandThumb1
								{
									OFFSET 7.235672 -3.848206 5.434273
									CHANNELS 3 Xrotation Yrotation Zrotation
									JOINT mixamorig:LeftHandThumb2
									{
										OFFSET 6.568451 -3.792297 3.792300
										CHANNELS 3 Xrotation Yrotation Zrotation
										JOINT mixamorig:LeftHandThumb3
										{
											OFFSET 6.063080 -3.500519 3.500518
											CHANNELS 3 Xrotation Yrotation Zrotation
											JOINT mixamorig:LeftHandThumb4
											{
												OFFSET 4.793182 -2.767334 2.767349
												CHANNELS 3 Xrotation Yrotation Zrotation
												End Site
												{
													OFFSET 0.101639 6.054260 1.275483
												}
											}
										}
									}
								}
								JOINT mixamorig:LeftHandIndex1
								{
									OFFSET 23.101074 -0.309540 4.992809
									CHANNELS 3 Xrotation Yrotation Zrotation
									JOINT mixamorig:LeftHandIndex2
									{
										OFFSET 6.226883 0.000000 0.000000
										CHANNELS 3 Xrotation Yrotation Zrotation
										JOINT mixamorig:LeftHandIndex3
										{
											OFFSET 6.094330 0.000000 0.000000
											CHANNELS 3 Xrotation Yrotation Zrotation
											JOINT mixamorig:LeftHandIndex4
											{
												OFFSET 5.482605 0.000000 0.000000
												CHANNELS 3 Xrotation Yrotation Zrotation
												End Site
												{
													OFFSET -1.427902 5.233032 0.797164
												}
											}
										}
									}
								}
								JOINT mixamorig:LeftHandRing1
								{
									OFFSET 22.299240 0.021149 -3.964172
									CHANNELS 3 Xrotation Yrotation Zrotation
									JOINT mixamorig:LeftHandRing2
									{
										OFFSET 6.321869 0.000000 0.000000
										CHANNELS 3 Xrotation Yrotation Zrotation
										JOINT mixamorig:LeftHandRing3
										{
											OFFSET 5.899796 0.000000 0.000000
											CHANNELS 3 Xrotation Yrotation Zrotation
											JOINT mixamorig:LeftHandRing4
											{
												OFFSET 6.517899 0.000000 0.000000
												CHANNELS 3 Xrotation Yrotation Zrotation
												End Site
												{
													OFFSET -1.637299 6.232208 0.980890
												}
											}
										}
									}
								}
								JOINT mixamorig:LeftHandPinky1
								{
									OFFSET 20.463791 -0.302338 -8.562233
									CHANNELS 3 Xrotation Yrotation Zrotation
									JOINT mixamorig:LeftHandPinky2
									{
										OFFSET 6.908646 0.000000 0.000000
										CHANNELS 3 Xrotation Yrotation Zrotation
										JOINT mixamorig:LeftHandPinky3
										{
											OFFSET 4.622849 0.000000 0.000000
											CHANNELS 3 Xrotation Yrotation Zrotation
											JOINT mixamorig:LeftHandPinky4
											{
												OFFSET 5.216080 0.000000 0.000000
												CHANNELS 3 Xrotation Yrotation Zrotation
												End Site
												{
													OFFSET -0.606308 5.116241 0.814926
												}
											}
										}
									}
								}
							}
						}
					}
				}
				JOINT mixamorig:RightShoulder
				{
					OFFSET -12.001300 18.284088 1.348900
					CHANNELS 3 Xrotation Yrotation Zrotation
					JOINT mixamorig:RightArm
					{
						OFFSET -25.308500 -0.751312 -5.164599
						CHANNELS 3 Xrotation Yrotation Zrotation
						JOINT mixamorig:RightForeArm
						{
							OFFSET -54.684429 0.000000 0.000000
							CHANNELS 3 Xrotation Yrotation Zrotation
							JOINT mixamorig:RightHand
							{
								OFFSET -55.150291 0.000000 0.000000
								CHANNELS 3 Xrotation Yrotation Zrotation
								JOINT mixamorig:RightHandMiddle1
								{
									OFFSET -23.317566 0.000000 0.000000
									CHANNELS 3 Xrotation Yrotation Zrotation
									JOINT mixamorig:RightHandMiddle2
									{
										OFFSET -6.378403 0.000000 0.000000
										CHANNELS 3 Xrotation Yrotation Zrotation
										JOINT mixamorig:RightHandMiddle3
										{
											OFFSET -6.148193 0.000000 0.000000
											CHANNELS 3 Xrotation Yrotation Zrotation
											JOINT mixamorig:RightHandMiddle4
											{
												OFFSET -6.583389 0.000000 0.000000
												CHANNELS 3 Xrotation Yrotation Zrotation
												End Site
												{
													OFFSET 1.171692 6.395905 1.029786
												}
											}
										}
									}
								}
								JOINT mixamorig:RightHandThumb1
								{
									OFFSET -7.190521 -3.860474 5.435846
									CHANNELS 3 Xrotation Yrotation Zrotation
									JOINT mixamorig:RightHandThumb2
									{
										OFFSET -6.567429 -3.791718 3.791708
										CHANNELS 3 Xrotation Yrotation Zrotation
										JOINT mixamorig:RightHandThumb3
										{
											OFFSET -6.062469 -3.500153 3.500166
											CHANNELS 3 Xrotation Yrotation Zrotation
											JOINT mixamorig:RightHandThumb4
											{
												OFFSET -4.792618 -2.767029 2.767022
												CHANNELS 3 Xrotation Yrotation Zrotation
												End Site
												{
													OFFSET -0.100327 6.053253 1.276754
												}
											}
										}
									}
								}
								JOINT mixamorig:RightHandIndex1
								{
									OFFSET -23.048981 -0.310791 4.992554
									CHANNELS 3 Xrotation Yrotation Zrotation
									JOINT mixamorig:RightHandIndex2
									{
										OFFSET -6.227539 0.000000 0.000000
										CHANNELS 3 Xrotation Yrotation Zrotation
										JOINT mixamorig:RightHandIndex3
										{
											OFFSET -6.095047 0.000000 0.000000
											CHANNELS 3 Xrotation Yrotation Zrotation
											JOINT mixamorig:RightHandIndex4
											{
												OFFSET -5.484772 0.000000 0.000000
												CHANNELS 3 Xrotation Yrotation Zrotation
												End Site
												{
													OFFSET 1.420593 5.237305 0.797056
												}
											}
										}
									}
								}
								JOINT mixamorig:RightHandRing1
								{
									OFFSET -22.246323 0.020569 -3.963762
									CHANNELS 3 Xrotation Yrotation Zrotation
									JOINT mixamorig:RightHandRing2
									{
										OFFSET -6.322128 0.000000 0.000000
										CHANNELS 3 Xrotation Yrotation Zrotation
										JOINT mixamorig:RightHandRing3
										{
											OFFSET -5.900024 0.000000 0.000000
											CHANNELS 3 Xrotation Yrotation Zrotation
											JOINT mixamorig:RightHandRing4
											{
												OFFSET -6.518356 0.000000 0.000000
												CHANNELS 3 Xrotation Yrotation Zrotation
												End Site
												{
													OFFSET 1.636398 6.232697 0.982186
												}
											}
										}
									}
								}
								JOINT mixamorig:RightHandPinky1
								{
									OFFSET -20.411011 -0.303314 -8.561701
									CHANNELS 3 Xrotation Yrotation Zrotation
									JOINT mixamorig:RightHandPinky2
									{
										OFFSET -6.907349 0.000000 0.000000
										CHANNELS 3 Xrotation Yrotation Zrotation
										JOINT mixamorig:RightHandPinky3
										{
											OFFSET -4.623840 0.000000 0.000000
											CHANNELS 3 Xrotation Yrotation Zrotation
											JOINT mixamorig:RightHandPinky4
											{
												OFFSET -5.218353 0.000000 0.000000
												CHANNELS 3 Xrotation Yrotation Zrotation
												End Site
												{
													OFFSET 0.602097 5.118835 0.816273
												}
											}
										}
									}
								}
							}
						}
					}
				}
			}
		}
	}
	JOINT mixamorig:LeftUpLeg
	{
		OFFSET 18.168400 -13.561905 -0.039000
		CHANNELS 3 Xrotation Yrotation Zrotation
		JOINT mixamorig:LeftLeg
		{
			OFFSET 0.577358 -80.825211 -3.695000
			CHANNELS 3 Xrotation Yrotation Zrotation
			JOINT mixamorig:LeftFoot
			{
				OFFSET -0.577356 -83.370262 -6.520700
				CHANNELS 3 Xrotation Yrotation Zrotation
				JOINT mixamorig:LeftToeBase
				{
					OFFSET 0.750401 -20.798306 25.135401
					CHANNELS 3 Xrotation Yrotation Zrotation
					JOINT mixamorig:LeftToe_End
					{
						OFFSET -0.000500 0.001200 19.917799
						CHANNELS 3 Xrotation Yrotation Zrotation
						End Site
						{
							OFFSET 0.000000 19.917805 0.000000
						}
					}
				}
			}
		}
	}
	JOINT mixamorig:RightUpLeg
	{
		OFFSET -18.162500 -13.585098 -0.041000
		CHANNELS 3 Xrotation Yrotation Zrotation
		JOINT mixamorig:RightLeg
		{
			OFFSET -0.595024 -80.945297 -3.631900
			CHANNELS 3 Xrotation Yrotation Zrotation
			JOINT mixamorig:RightFoot
			{
				OFFSET 0.595024 -83.218193 -6.561200
				CHANNELS 3 Xrotation Yrotation Zrotation
				JOINT mixamorig:RightToeBase
				{
					OFFSET -0.753601 -20.807106 25.115000
					CHANNELS 3 Xrotation Yrotation Zrotation
					JOINT mixamorig:RightToe_End
					{
						OFFSET 0.000299 0.001700 19.918200
						CHANNELS 3 Xrotation Yrotation Zrotation
						End Site
						{
							OFFSET 0.000000 19.918203 0.000000
						}
					}
				}
			}
		}
	}
}
MOTION
Frames: 4
Frame Time: 0.033333
0.611263 199.606918 -1.677637 -2.763709 -4.086219 0.093783 2.072089 -0.060216 -0.591876 4.188611 -0.160746 -0.895947 4.187123 -0.162963 -0.903562 -7.833284 1.069910 0.304712 -1.955378 5.424912 1.879045 -0.000000 -0.000000 0.000000 -0.000000 -0.000000 0.000000 -0.000000 -0.000000 0.000000 0.815704 0.748685 -3.539332 25.845313 -51.282153 -41.502712 -0.000003 -25.434308 -0.000000 -35.619440 20.604942 -6.679880 0.057968 0.893385 -7.424300 0.058458 0.897207 -7.456305 0.014573 0.448595 -3.719926 0.000002 0.000001 -0.000000 -1.593606 7.402361 6.696194 5.056520 22.083789 1.753604 0.055940 8.626002 3.219183 -0.000003 0.000002 -0.000001 0.058216 0.895299 -7.440310 0.058208 0.895298 -7.440292 0.014572 0.448600 -3.719915 -0.000000 -0.000001 0.000002 0.058217 0.895299 -7.440312 0.058207 0.895305 -7.440291 0.014572 0.448596 -3.719930 -0.000004 -0.000000 -0.000001 0.566770 4.917671 -6.955662 0.048194 -3.159511 -7.946746 0.014573 0.448601 -3.719926 -0.000003 -0.000001 0.000001 4.078503 14.186571 10.578997 27.685128 45.342183 39.033104 -0.000006 17.120214 -0.000008 -24.527901 -1.951110 -7.002014 0.055313 -0.877084 7.216616 0.055292 -0.877077 7.216627 0.013854 -0.439412 3.608099 -0.000004 0.000000 -0.000001 -1.870809 -5.360484 -6.862587 5.790429 -21.760517 -1.082738 -0.678314 -6.408202 -2.785364 0.000004 -0.000002 -0.000001 0.055313 -0.877085 7.216617 0.055293 -0.877077 7.216617 0.013864 -0.439408 3.608105 0.000002 0.000001 -0.000000 0.055309 -0.877086 7.216608 0.055309 -0.877078 7.216631 0.013843 -0.439406 3.608105 -0.000004 0.000000 0.000002 0.055314 -0.877075 7.216623 0.055296 -0.877081 7.216624 0.013846 -0.439420 3.608092 -0.000002 0.000001 0.000000 -9.495059 0.349267 2.568779 15.370340 7.009555 2.508388 -2.723698 0.334195 -5.590369 -0.000036 0.000001 -0.000002 0.000000 -0.000000 0.000000 -11.481453 -3.197028 -3.232701 16.383141 1.341160 -1.608536 -2.206178 -0.310168 3.613786 -0.000042 -0.000001 -0.000001 0.000000 -0.000000 0.000000 
0.609130 199.602264 -1.750412 -2.752370 -4.160401 0.088190 2.069945 -0.063099 -0.592118 4.189619 -0.159646 -0.898227 4.188117 -0.161851 -0.905275 -7.886200 1.075300 0.304578 -1.993916 5.452898 1.823553 0.000000 -0.000000 -0.000000 0.000000 -0.000000 -0.000000 0.000000 -0.000000 -0.000000 0.807295 0.796941 -3.611371 26.017167 -51.335999 -41.331271 -0.000001 -25.491301 0.000012 -35.718351 20.797156 -6.732041 0.057977 0.893431 -7.424627 0.058467 0.897257 -7.456604 0.014568 0.448616 -3.720080 -0.000000 -0.000000 -0.000001 -1.593612 7.402708 6.696257 5.056692 22.086096 1.753745 0.056033 8.627137 3.219257 0.000001 0.000004 -0.000000 0.058216 0.895347 -7.440602 0.058218 0.895345 -7.440632 0.014580 0.448619 -3.720085 -0.000001 0.000001 -0.000001 0.058218 0.895350 -7.440609 0.058214 0.895352 -7.440613 0.014576 0.448609 -3.720107 -0.000005 -0.000001 -0.000000 0.566794 4.917716 -6.955987 0.048214 -3.159464 -7.947055 0.014564 0.448619 -3.720084 -0.000001 0.000001 -0.000000 4.087916 14.271444 10.663991 27.945331 45.333157 38.739129 0.000005 17.174094 -0.000005 -24.291501 -1.779688 -7.227941 0.051359 -0.845281 6.953656 0.051360 -0.845279 6.953677 0.012860 -0.423427 3.476641 -0.000006 -0.000000 -0.000000 -1.870534 -5.341709 -6.859670 5.774197 -21.565802 -1.071577 -0.686615 -6.311113 -2.775569 0.000002 -0.000002 -0.000002 0.051357 -0.845292 6.953651 0.051355 -0.845266 6.953674 0.012863 -0.423423 3.476654 -0.000001 -0.000001 0.000000 0.051351 -0.845284 6.953658 0.051366 -0.845279 6.953675 0.012860 -0.423412 3.476663 0.000005 0.000000 0.000001 0.051361 -0.845279 6.953647 0.051354 -0.845277 6.953678 0.012853 -0.423425 3.476641 0.000004 0.000001 0.000001 -9.531933 0.334765 2.590684 15.395110 7.092422 2.479984 -2.715957 0.332717 -5.586992 -0.000018 -0.000002 0.000005 0.000000 -0.000000 -0.000000 -11.534302 -3.166029 -3.196011 16.387929 1.398874 -1.633571 -2.170620 -0.309265 3.609601 -0.000043 0.000000 -0.000004 0.000000 -0.000000 -0.000000 
0.598418 199.601410 -1.818482 -2.731358 -4.213808 0.069385 2.067979 -0.066343 -0.591501 4.186122 -0.156697 -0.900448 4.184593 -0.158895 -0.907155 -7.925456 1.079893 0.304617 -2.042199 5.478715 1.787595 0.000000 0.000000 0.000000 0.000000 0.000000 0.000000 0.000000 0.000000 0.000000 0.798547 0.844713 -3.668504 26.220261 -51.428869 -41.139947 -0.000002 -25.573041 -0.000003 -35.890414 21.076789 -6.705071 0.057990 0.893524 -7.425514 0.058477 0.897379 -7.457601 0.014576 0.448681 -3.720580 0.000001 -0.000000 0.000001 -1.593615 7.402953 6.696269 5.057099 22.091531 1.754100 0.056266 8.629840 3.219537 0.000001 -0.000001 -0.000002 0.058233 0.895449 -7.441490 0.058226 0.895458 -7.441600 0.014577 0.448674 -3.720595 -0.000000 0.000001 -0.000001 0.058229 0.895451 -7.441493 0.058231 0.895456 -7.441603 0.014580 0.448683 -3.720587 0.000002 -0.000000 -0.000001 0.566863 4.917806 -6.956878 0.048217 -3.159353 -7.948065 0.014567 0.448679 -3.720580 -0.000003 -0.000001 0.000000 4.097138 14.352034 10.741612 28.200364 45.326088 38.456629 0.000011 17.264743 -0.000001 -24.028351 -1.763837 -7.451789 0.045811 -0.798529 6.567148 0.045816 -0.798515 6.567156 0.011463 -0.399923 3.283423 -0.000003 -0.000000 -0.000000 -1.870577 -5.345282 -6.860219 5.763942 -21.442592 -1.064441 -0.691866 -6.249690 -2.769374 0.000001 0.000002 0.000001 0.045817 -0.798536 6.567153 0.045816 -0.798510 6.567158 0.011452 -0.399929 3.283414 -0.000001 -0.000000 -0.000001 0.045814 -0.798537 6.567145 0.045814 -0.798514 6.567160 0.011456 -0.399914 3.283430 -0.000002 -0.000000 -0.000001 0.045817 -0.798525 6.567154 0.045807 -0.798516 6.567159 0.011457 -0.399926 3.283426 0.000001 0.000001 -0.000000 -9.580203 0.285778 2.631261 15.421070 7.183700 2.440976 -2.706173 0.327123 -5.583897 -0.000028 -0.000001 -0.000001 -0.000000 0.000000 0.000000 -11.573477 -3.151205 -3.145599 16.358660 1.439855 -1.659900 -2.123019 -0.308498 3.606923 -0.000089 0.000000 0.000001 -0.000000 -0.000000 0.000000 
0.581337 199.600891 -1.882432 -2.692133 -4.249634 0.037167 2.066812 -0.069425 -0.589667 4.178516 -0.153093 -0.900131 4.176956 -0.155297 -0.906818 -7.949834 1.082300 0.303221 -2.086336 5.496648 1.764975 0.000000 0.000000 0.000000 0.000000 0.000000 0.000000 0.000000 0.000000 0.000000 0.789800 0.890539 -3.711360 26.428789 -51.544651 -40.946704 0.000005 -25.647068 0.000010 -36.040907 21.344862 -6.649995 0.058008 0.893713 -7.427004 0.058509 0.897557 -7.459203 0.014580 0.448775 -3.721384 0.000001 0.000001 -0.000001 -1.593593 7.402066 6.696129 5.057547 22.097769 1.754502 0.056503 8.632970 3.219808 0.000004 -0.000000 -0.000001 0.058255 0.895629 -7.442989 0.058256 0.895654 -7.443212 0.014578 0.448771 -3.721378 -0.000000 0.000001 -0.000001 0.058251 0.895635 -7.442985 0.058260 0.895652 -7.443214 0.014575 0.448764 -3.721393 0.000001 0.000001 -0.000000 0.566998 4.917979 -6.958376 0.048250 -3.159149 -7.949650 0.014583 0.448773 -3.721389 -0.000007 -0.000000 0.000001 4.105279 14.413340 10.789613 28.393009 45.305321 38.232144 0.000001 17.335165 0.000003 -23.787344 -1.740834 -7.703431 0.039255 -0.739286 6.078169 0.039244 -0.739308 6.078158 0.009808 -0.370174 3.038965 -0.000001 -0.000000 -0.000002 -1.870852 -5.364863 -6.863250 5.758078 -21.371981 -1.060326 -0.694864 -6.214481 -2.765791 -0.000002 -0.000000 -0.000001 0.039253 -0.739293 6.078168 0.039247 -0.739301 6.078165 0.009819 -0.370165 3.038967 -0.000004 0.000000 0.000001 0.039252 -0.739287 6.078166 0.039249 -0.739312 6.078163 0.009814 -0.370170 3.038959 -0.000003 0.000001 -0.000001 0.039252 -0.739282 6.078166 0.039250 -0.739305 6.078169 0.009815 -0.370179 3.038961 0.000003 0.000000 0.000000 -9.658069 0.212362 2.689853 15.465466 7.270995 2.397818 -2.702869 0.317716 -5.584339 -0.000047 0.000001 -0.000000 -0.000000 0.000000 -0.000000 -11.615261 -3.138344 -3.080216 16.308530 1.454708 -1.684639 -2.068272 -0.307856 3.605486 -0.000040 -0.000000 -0.000001 -0.000000 0.000000 0.000000 
